<svg xmlns="http://www.w3.org/2000/svg" fill="none" viewBox="0 0 3000 3000" focusable="false" class="concentric concentric--spruce" data-big="true"><g class="concentric__container"><path d="M1794.82 1141.06a464.49 464.49 0 0 1 138.66 192.05 464.49 464.49 0 0 1 25.93 235.46" stroke="#FFF7E3" stroke-width="277" class="jupiter"/><path d="M1210.04 1734.37a351.423 351.423 0 0 1-89.14-217.66 351.5 351.5 0 0 1 68.07-225.15" stroke="#F1FCFC" stroke-width="161" class="earth"/><path d="M1448.64 1401.6a110.928 110.928 0 0 1 46.82-12.51c16.34-.67 32.63 2.28 47.69 8.64a111.126 111.126 0 0 1 39.47 28.14 111.043 111.043 0 0 1 23.71 42.27" stroke="#F6FBE5" stroke-width="80" class="venus"/><g stroke="#FFE49D" class="comet clockwise fast"><path d="M1596.9 1257.3a262.305 262.305 0 0 1 104.11 76.71 262.405 262.405 0 0 1 54.85 117.11" class="Ellipse 653"/><circle cx="1756.5" cy="1457.11" r="5.5" transform="rotate(-10.836 1756.5 1457.11)" class="Ellipse 655"/></g><path d="M1428.09 1431.23a99.5 99.5 0 0 1 58.01-29.75 99.438 99.438 0 0 1 63.98 12.54 99.529 99.529 0 0 1 42.48 49.47 99.507 99.507 0 0 1 2.73 65.14" stroke="#D1ED7E" stroke-dasharray="7 7" class="mercury counterclockwise fast"/><path d="M1471.5 2023.73c-85.73-4.67-169-30.31-242.5-74.67a524.365 524.365 0 0 1-179.08-179.75" stroke="#94CC3F" stroke-dasharray="1 6" class="mars"/></g></svg>