<svg xmlns="http://www.w3.org/2000/svg" viewBox="0.08199979364871979 0.2800000011920929 38.83399963378906 38.83300018310547"><g class="i-cogicon"><path d="M16.926.43S18.213.28 19.5.28s2.572.15 2.572.15l1.09 4.663c1.453.363 2.822.937 4.073 1.688l4.07-2.527s1.015.803 1.925 1.712a25.37 25.37 0 0 1 1.712 1.926l-2.528 4.069a14.961 14.961 0 0 1 1.689 4.073l4.663 1.09s.15 1.286.15 2.572-.15 2.573-.15 2.573l-4.663 1.09a14.961 14.961 0 0 1-1.688 4.072l2.527 4.07s-.803 1.015-1.712 1.925c-.91.91-1.926 1.712-1.926 1.712l-4.069-2.527a14.964 14.964 0 0 1-4.073 1.688l-1.09 4.663s-1.286.151-2.572.151-2.573-.15-2.573-.15l-1.09-4.664a14.964 14.964 0 0 1-4.072-1.688l-4.07 2.528s-1.015-.804-1.925-1.713A25.368 25.368 0 0 1 4.056 31.5l2.528-4.069a14.962 14.962 0 0 1-1.688-4.073l-4.663-1.09s-.151-1.286-.151-2.572.15-2.572.15-2.572l4.664-1.09a14.962 14.962 0 0 1 1.688-4.073L4.056 7.89S4.86 6.877 5.77 5.967c.91-.91 1.926-1.712 1.926-1.712l4.069 2.527a14.962 14.962 0 0 1 4.073-1.688L16.927.43Z" fill="#D85427" class="i-cogicon__cog"></path><path d="M24.025 21.756a5.038 5.038 0 0 1-1.753 2.073 5.208 5.208 0 0 1-2.778.861 5.094 5.094 0 0 1-1.943-.377 5.272 5.272 0 0 1-2.211-1.83 5.183 5.183 0 0 1-.864-2.773c0-.7.135-1.347.378-1.939a4.947 4.947 0 0 1 1.807-2.18 5.208 5.208 0 0 1 2.779-.862c.7 0 1.348.135 1.942.377a4.952 4.952 0 0 1 2.184 1.804c.135.215.27.43.378.673l5.53-1.427c-.081-.216-.162-.404-.243-.62a10.743 10.743 0 0 0-3.857-4.684 10.544 10.544 0 0 0-5.961-1.83c-1.403.053-2.806.35-4.073.888a10.754 10.754 0 0 0-4.694 3.85 10.496 10.496 0 0 0-1.834 5.95c0 1.453.297 2.853.836 4.146a10.743 10.743 0 0 0 3.857 4.684c1.7 1.158 3.75 1.831 5.961 1.831 1.457 0 2.86-.296 4.154-.835a10.755 10.755 0 0 0 4.694-3.85 11.01 11.01 0 0 0 1.24-2.45l-5.529-1.48Z" fill="#fff" class="i-cogicon__c"></path></g></svg>